<svg xmlns="http://www.w3.org/2000/svg" viewBox="340 340 540 540" width="400" height="400">
  <defs>
    <style>
      @keyframes rainbow { 0%{filter:drop-shadow(0 0 12px #ff5555) drop-shadow(0 0 24px #ff555540)} 14%{filter:drop-shadow(0 0 12px #ffb86c) drop-shadow(0 0 24px #ffb86c40)} 28%{filter:drop-shadow(0 0 12px #f1fa8c) drop-shadow(0 0 24px #f1fa8c40)} 42%{filter:drop-shadow(0 0 12px #50fa7b) drop-shadow(0 0 24px #50fa7b40)} 57%{filter:drop-shadow(0 0 12px #8be9fd) drop-shadow(0 0 24px #8be9fd40)} 71%{filter:drop-shadow(0 0 12px #bd93f9) drop-shadow(0 0 24px #bd93f940)} 85%{filter:drop-shadow(0 0 12px #ff79c6) drop-shadow(0 0 24px #ff79c640)} 100%{filter:drop-shadow(0 0 12px #ff5555) drop-shadow(0 0 24px #ff555540)} }
      svg { animation: rainbow 5s linear infinite; }
    </style>
  </defs>
<g stroke-width="0"><path d="M374 604v230h460V374H374zm291.5-102.1c-2.1 1.9-54.7 46.4-70 59.1-4.9 4.1-9.9 8.4-11.1 9.5-1.1 1.1-3.7 3.2-5.6 4.7s-4.6 3.7-6 5-3.8 3.3-5.3 4.5c-1.6 1.3-2.7 2.4-2.4 2.6.2.3 3.6.1 7.4-.4 15.3-1.9 22.5-2.5 22.5-2 0 .4-1.5 1.6-3.3 2.8-4 2.7-49.5 34.9-56.1 39.7l-4.9 3.6h-65.8l14.3-12.3c7.9-6.7 19.9-16.9 26.8-22.7s12.7-10.7 13-11 2.7-2.4 5.5-4.5c7.9-6.4 9.7-7.8 12.6-10.5 3.5-3.2 7.3-6.4 28.9-24.5l13.1-11-45-.5-44.9-.5-9.8-8.9c-5.5-4.9-13.6-12.4-18.1-16.8L453 500h107.2c104.8 0 107.2 0 105.3 1.9m101.4 1.3c-2.4 1.7-4.8 3.5-5.4 4-.5.5-5.5 4.1-11 8-5.5 4-10.2 7.5-10.5 7.8-.6.6-8.2 6.3-21 15.6-16.9 12.4-22.8 16.4-24 16.4-.6 0-6.5-5.3-13.1-11.7l-12.1-11.8 3-2.5c5.3-4.6 11.5-9.5 13.1-10.4.9-.5 2.1-1.4 2.7-2s2.6-2.2 4.4-3.6 6.2-4.9 9.9-7.8l6.5-5.2h61.9zm-98.5 46.3c44.5 43.3 69.9 68 75.7 73.6 3.8 3.6 6.9 6.9 6.9 7.2 0 .4-12.2.7-27.2.7h-27.2l-20.8-21.1c-22.9-23.2-20.7-22-29.8-17.3-2.5 1.2-9.2 4.5-15 7.2-12.6 6-30.3 14.4-50 24-14.6 7-25.8 12.3-49 23.4-6.9 3.3-14.3 6.8-16.4 7.9s-4 1.8-4.3 1.6c-.3-.4 18-13.7 27.7-20.1 3-2 9.1-6.1 13.5-9.1s10.5-7.1 13.5-9.1 5.7-4 6-4.3c.4-.6 16-11.1 20.1-13.6 1-.5 12.2-8 25-16.5l23.3-15.5-13.9-.5c-12.8-.5-13.8-.6-11.9-2 1.2-.8 4.2-3.3 6.7-5.5 6-5.4 12.5-10.8 22.7-19.3l8.5-7.1 2.8 2.7c1.6 1.5 7.5 7.2 13.1 12.7M526 672.3v4.2l-17.1 10.8-17.2 10.7h35.1l.4 4.2c.3 2.4.3 4.6.1 5-.2.5-13.4.8-29.4.8H469v-4.4c0-4.3.1-4.4 7-8.7 12.5-7.8 23.4-14.8 25.5-16.3 1.8-1.4.4-1.5-14.2-1.6H471v-9h55zm68 .2v4.5h-40v6h34v10h-34v5l20.3.2 20.2.3.3 4.7.3 4.8H540v-40h54zm65.5-2.6c4.8 2.2 6.9 4.4 9 9.4 4 9.7 0 22.4-8.5 26.7-3.6 1.8-6 2-28 2h-24v-40h23.8c20.8 0 24.2.3 27.7 1.9m38.7-1.1c.2.4 2.9 3.1 6 6.1l5.7 5.3 7.4-6.1 7.4-6.1h19.5l-4.4 3.6c-2.3 1.9-5 4.1-5.8 4.7-9.6 7.5-12.9 10.4-13 11.3 0 .6 2 2.7 4.3 4.5 2.4 1.9 6.9 5.6 10 8.3 3.1 2.6 6.4 5.4 7.4 6.2 1.6 1.2.4 1.3-8.7 1.4-9.9 0-10.6-.2-12.8-2.5-1.3-1.3-4.5-4.3-7.1-6.5l-4.8-4-2.4 2.1c-1.3 1.2-5 4.1-8.1 6.5l-5.6 4.4h-9.9c-10.9-.1-10.7.4-2.4-6 4.6-3.5 16.4-13 17.5-14.1.6-.5 0-1.7-1.5-2.9-3.7-3.3-9.9-8.5-15.2-13l-4.8-4h10.5c5.7 0 10.6.3 10.8.8"/><path d="M622 687.5V698h14c14 0 14.1 0 16.5-2.6 4.7-5.1 2.6-15.1-3.6-17.3-1.8-.6-8.5-1.1-15-1.1H622z"/></g><path fill="#555" d="M702.9 505.2c-3.7 2.9-8.1 6.4-9.9 7.8s-4.1 3.2-5.1 4c-2.4 2-5.7 4.5-9.4 7.3-1.6 1.2-4.2 3.3-5.8 4.7l-2.9 2.5 12.1 11.8c6.6 6.4 12.5 11.7 13.1 11.7.9 0 11-6.7 15.5-10.3 1.1-.8 10.4-7.7 14.4-10.5 7-5 14.7-10.7 15.1-11.2.3-.3 5-3.8 10.5-7.8 5.5-3.9 10.5-7.5 11-8 .6-.5 3-2.3 5.4-4l4.4-3.2h-61.9zM468 514.4c0 .2.8 1 1.8 1.7 1.5 1.3 1.6 1.2.3-.4s-2.1-2.1-2.1-1.3m43.3 19.3c12.5.2 32.9.2 45.5 0 12.5-.1 2.2-.2-22.8-.2s-35.3.1-22.7.2M748 627.4c0 .2.8 1 1.8 1.7 1.5 1.3 1.6 1.2.3-.4s-2.1-2.1-2.1-1.3M681.7 672c5.3 4.5 11.5 9.7 15.2 13 1.5 1.2 2.1 2.4 1.5 2.9-.8.8-10.3 8.5-17.4 14.1-8.4 6.6-8.6 6 2.4 6 10.8 0 10.9 0 21.9-9.7l3.8-3.4 4.7 4c2.6 2.2 6 5.1 7.6 6.5 2.7 2.4 3.6 2.6 13 2.6 9-.1 9.9-.2 8.2-1.5-1.1-.8-3.1-2.5-4.5-3.7-1.4-1.3-5.9-5-9.8-8.3-4-3.2-7.3-6.3-7.3-6.8 0-1.1 1.3-2.3 7-6.7 6-4.7 6.8-5.3 11.8-9.4l4.4-3.6h-19.5l-7.4 6.1-7.3 6.1-6.7-6.1-6.6-6.1h-19.8zm-12.4 15.5c0 3.3.2 4.5.4 2.7s.2-4.5 0-6-.4 0-.4 3.3m-75 16c0 2.7.2 3.8.4 2.2.2-1.5.2-3.7 0-5-.2-1.2-.4 0-.4 2.8"/><g fill="#fff" stroke-width="0"><path d="M457.7 503.7c2.2 2.1 9.2 8.5 15.4 14.3s12.4 11.5 13.7 12.7l2.3 2.3h45.4c25 0 45.5.4 45.5.9 0 .4-4.8 4.8-10.7 9.7s-11.7 9.8-13 10.9c-1.2 1.1-3.5 3-5.1 4.2-1.5 1.2-4.2 3.5-5.9 5.1-1.6 1.6-3.7 3.3-4.5 3.8-.9.5-4.4 3.4-7.9 6.6-3.5 3.1-7.7 6.7-9.4 7.9-1.6 1.3-5.9 4.8-9.5 7.9s-12.3 10.5-19.5 16.5c-7.1 6-14.6 12.4-16.5 14.1s-5.1 4.5-7 6.2l-3.5 3.1 31.5.1c31 0 31.6 0 34.9-2.3 1.9-1.2 4.2-2.7 5-3.2.9-.6 5-3.5 9.1-6.5 8.5-6.3 8.7-6.4 20.3-14.3 4.7-3.1 9-6.4 9.7-7.2s1.8-1.5 2.5-1.5c.8 0 1.5-.4 1.7-.8s2.9-2.7 6.1-4.9l5.8-4.2-5.8.5c-3.2.3-8.8.9-12.5 1.5-3.7.5-7.9.9-9.5.9-2.7 0-2.7-.2 2.6-5 2.9-2.8 5.9-5.4 6.6-5.8s5.3-4.2 10.1-8.4c4.9-4.2 17-14.5 26.9-22.8 9.9-8.4 20.6-17.5 23.8-20.3 3.3-2.8 10.7-9.1 16.5-14 5.9-4.9 11.4-9.5 12.2-10.3 1.2-1.2-13-1.4-105-1.4H453.7z"/><path d="M649 537.8c-3.3 2.6-6.3 5.2-17 14.2-3 2.5-6.4 5.5-7.5 6.6-1.2 1.2-4.4 3.9-7.1 5.9l-4.9 3.8 15-.7c12.7-.5 14.7-.4 13.5.8-2.2 2-20.7 14.4-24.4 16.3-1.7.9-3.3 1.9-3.6 2.3s-4.3 3.3-9 6.3c-4.7 3.1-13.2 8.8-18.9 12.7-5.8 3.8-10.7 7-11 7-.2 0-1.4.8-2.5 1.9-1.2 1-9.1 6.5-17.6 12.2s-15.7 10.6-16 11c-.3.3-3.2 2.3-6.4 4.5-10.4 6.9-12.4 8.3-13.1 9.4-.3.5-.4 1 0 1 .3 0 8.3-3.8 17.8-8.4s21.7-10.5 27.2-13.1 19.6-9.4 31.4-15.1c11.7-5.7 21.5-10.4 21.7-10.4s8.7-4.1 19-9c10.2-5 19-8.8 19.5-8.5.4.3 10 9.8 21.1 21l20.3 20.5h53.8l-10-9.8c-5.4-5.3-22-21.4-36.8-35.7s-31.4-30.5-37-36c-15.3-15-13.5-14-17.5-10.7M514.5 654c-.3.6.1.7.9.4 1.8-.7 2.1-1.4.7-1.4-.6 0-1.3.4-1.6 1M472 672.5v4.5l16.1.2 16.2.3-17.1 10.9-17 11-.4 4.3-.3 4.3H527v-9h-18c-9.9 0-18-.4-18-.8 0-.5 1-1.4 2.3-2 1.2-.7 3.1-1.8 4.1-2.4 1.1-.7 6.2-4 11.5-7.3 17.9-11.3 17.1-10.6 17.1-14.8V668h-54zm69 15.5v20h53v-9l-20.2-.2-20.3-.3v-6l16.7-.3 16.7-.2.6-3.1c1.2-5.5 0-5.9-18.1-5.9H553v-6h40v-9h-52zm67 .1v20.1l24.3-.4c28.5-.6 29.9-.9 34.1-9.2 4.3-8.4 3.2-19.4-2.3-25.3-4-4.3-10.6-5.3-34.3-5.3H608zm45-8.1c3 3.9 2.7 12.9-.5 16.4-2.4 2.6-2.5 2.6-16.5 2.6h-14v-22.1l14.6.3c14.1.3 14.6.4 16.4 2.8"/></g><path fill="#aaa" d="M646.9 516.7c-1.3 1.6-1.2 1.7.4.4.9-.7 1.7-1.5 1.7-1.7 0-.8-.8-.3-2.1 1.3m-75 24c-1.3 1.6-1.2 1.7.4.4.9-.7 1.7-1.5 1.7-1.7 0-.8-.8-.3-2.1 1.3m65.4 27c.9.2 2.5.2 3.5 0 .9-.3.1-.5-1.8-.5s-2.7.2-1.7.5m51.7 2.7c0 .2.8 1 1.8 1.7 1.5 1.3 1.6 1.2.3-.4s-2.1-2.1-2.1-1.3m-186.1 28.3c-1.3 1.6-1.2 1.7.4.4s2.1-2.1 1.3-2.1c-.2 0-1 .8-1.7 1.7M693 627.4c0 .2.8 1 1.8 1.7 1.5 1.3 1.6 1.2.3-.4s-2.1-2.1-2.1-1.3m41.8 3.3c.7.3 1.6.2 1.9-.1.4-.3-.2-.6-1.3-.5-1.1 0-1.4.3-.6.6m11.5 0c.9.2 2.5.2 3.5 0 .9-.3.1-.5-1.8-.5s-2.7.2-1.7.5M593.2 674c0 1.9.2 2.7.5 1.7.2-.9.2-2.5 0-3.5-.3-.9-.5-.1-.5 1.8m-30.9 18.7c4.8.2 12.6.2 17.5 0 4.8-.1.8-.3-8.8-.3s-13.6.2-8.7.3"/><path fill="#d4d4d4" d="M458.5 505c1 1.1 2 2 2.3 2s-.3-.9-1.3-2-2-2-2.3-2 .3.9 1.3 2m14.5 13.4c0 .2.8 1 1.8 1.7 1.5 1.3 1.6 1.2.3-.4s-2.1-2.1-2.1-1.3m145.4 44.8-1.9 2.3 2.3-1.9c2.1-1.8 2.7-2.6 1.9-2.6-.2 0-1.2 1-2.3 2.2m14.4 4.5c.6.2 1.8.2 2.5 0 .6-.3.1-.5-1.3-.5s-1.9.2-1.2.5m65.7 12.3c2.1 2.2 4.1 4 4.4 4s-1.3-1.8-3.4-4-4.1-4-4.4-4 1.3 1.8 3.4 4M467 630c0 .5.5 1 1.1 1 .5 0 .7-.5.4-1-.3-.6-.8-1-1.1-1-.2 0-.4.4-.4 1m6.8.7c1.8.2 4.5.2 6 0s0-.4-3.3-.4-4.5.2-2.7.4m14 0c1.7.2 4.7.2 6.5 0 1.7-.2.3-.4-3.3-.4s-5 .2-3.2.4m15.5 0c3.1.2 8.3.2 11.5 0 3.1-.2.5-.3-5.8-.3s-8.9.1-5.7.3m20 0c.9.2 2.3.2 3 0 .6-.3-.1-.5-1.8-.5-1.6 0-2.2.2-1.2.5m176.5 0c1.7.2 4.7.2 6.5 0 1.7-.2.3-.4-3.3-.4s-5 .2-3.2.4m16.5 0c.9.2 2.5.2 3.5 0 .9-.3.1-.5-1.8-.5s-2.7.2-1.7.5m24.5 0c.6.2 1.8.2 2.5 0 .6-.3.1-.5-1.3-.5s-1.9.2-1.2.5m-269.5 41.8c0 2.7.2 3.8.4 2.2.2-1.5.2-3.7 0-5-.2-1.2-.4 0-.4 2.8m81.9 7.5c0 1.9.2 2.7.5 1.7.2-.9.2-2.5 0-3.5-.3-.9-.5-.1-.5 1.8m33.3 4c.3.5.8 1 1.1 1 .2 0 .4-.5.4-1 0-.6-.5-1-1.1-1-.5 0-.7.4-.4 1m.6 6.6c0 1.1.3 1.4.6.6.3-.7.2-1.6-.1-1.9-.3-.4-.6.2-.5 1.3m-33.9 4.9c0 1.6.2 2.2.5 1.2.2-.9.2-2.3 0-3-.3-.6-.5.1-.5 1.8m-83.9 7.5c0 2.5.2 3.5.4 2.2.2-1.2.2-3.2 0-4.5-.2-1.2-.4-.2-.4 2.3"/><path fill="gray" d="M624.9 535.7c-1.3 1.6-1.2 1.7.4.4.9-.7 1.7-1.5 1.7-1.7 0-.8-.8-.3-2.1 1.3m-6 5c-1.3 1.6-1.2 1.7.4.4.9-.7 1.7-1.5 1.7-1.7 0-.8-.8-.3-2.1 1.3m95.1 53.7c0 .2.8 1 1.8 1.7 1.5 1.3 1.6 1.2.3-.4s-2.1-2.1-2.1-1.3m7 7c0 .2.8 1 1.8 1.7 1.5 1.3 1.6 1.2.3-.4s-2.1-2.1-2.1-1.3m-180.6 87.1c0 11 .2 15.6.3 10.3.2-5.3.2-14.3 0-20-.1-5.7-.3-1.3-.3 9.7m-40.2 10.2c4.8.2 12.9.2 18 0 5.1-.1 1.2-.3-8.7-.3s-14.1.2-9.3.3m63.6 0c5.6.2 14.8.2 20.5 0 5.6-.1 1-.3-10.3-.3s-15.9.2-10.2.3m65.5 0c3.7.2 9.6.2 13 0s.4-.3-6.8-.3c-7.1 0-9.9.1-6.2.3"/><path fill="#aad4d4" d="M721.8 630.7c.7.3 1.6.2 1.9-.1.4-.3-.2-.6-1.3-.5-1.1 0-1.4.3-.6.6"/><path fill="#aad4aa" d="M727.8 630.7c.6.2 1.8.2 2.5 0 .6-.3.1-.5-1.3-.5s-1.9.2-1.2.5"/></svg>
